<svg width="26" height="26" viewBox="0 0 26 26" fill="none" xmlns="http://www.w3.org/2000/svg">
<path d="M12.6875 0C5.68038 0 0 5.68038 0 12.6875C0 19.6946 5.68038 25.375 12.6875 25.375C19.6946 25.375 25.375 19.6946 25.375 12.6875C25.375 5.68038 19.6946 0 12.6875 0ZM1.20833 12.6875C1.20835 10.8131 1.66735 8.96726 2.54524 7.31117C3.42313 5.65509 4.6932 4.23917 6.24449 3.18712C7.79577 2.13507 9.58108 1.47889 11.4444 1.27592C13.3078 1.07295 15.1925 1.32935 16.9339 2.02273C18.6753 2.71611 20.2205 3.82537 21.4343 5.2536C22.6482 6.68184 23.4939 8.38559 23.8974 10.216C24.301 12.0464 24.2502 13.9478 23.7495 15.7541C23.2488 17.5604 22.3134 19.2165 21.025 20.5779C20.8271 19.4951 20.3148 18.4945 19.552 17.7009C18.6543 16.7656 17.5233 16.217 16.53 15.9077C15.8932 15.7095 15.277 15.9355 14.8504 16.2219C14.3876 16.5348 13.6264 16.9167 12.6875 16.9167C11.7486 16.9167 10.9874 16.5348 10.5246 16.2231C10.098 15.9343 9.48179 15.7095 8.845 15.9077C7.85175 16.217 6.72075 16.7656 5.82296 17.7009C5.05996 18.494 4.54727 19.4942 4.34879 20.5767C2.3289 18.4471 1.20459 15.6227 1.20833 12.6875ZM5.44354 21.5929C5.51121 20.2154 6.01871 19.2403 6.69417 18.5382C7.40708 17.7951 8.3375 17.3311 9.20508 17.0605C9.35975 17.0121 9.59054 17.0496 9.84912 17.2248C10.4255 17.6139 11.4224 18.125 12.6875 18.125C13.9526 18.125 14.9495 17.6139 15.5259 17.2248C15.7845 17.0496 16.0153 17.0121 16.1699 17.0605C17.0387 17.3311 17.9667 17.7951 18.6808 18.5382C19.3563 19.2391 19.8638 20.2166 19.9315 21.5929C17.8864 23.2614 15.3269 24.1708 12.6875 24.1667C10.0481 24.1708 7.48864 23.2614 5.44354 21.5929ZM9.66667 10.2708C9.66667 8.59729 10.9717 7.25 12.6875 7.25C14.4033 7.25 15.7083 8.59729 15.7083 10.2708C15.7083 11.9444 14.4033 13.2917 12.6875 13.2917C10.9717 13.2917 9.66667 11.9456 9.66667 10.2708ZM12.6875 6.04167C12.1308 6.03683 11.5787 6.14292 11.0634 6.35375C10.5481 6.56457 10.0799 6.8759 9.68625 7.26959C9.29257 7.66327 8.98124 8.13141 8.77041 8.6467C8.55959 9.16199 8.4535 9.71411 8.45833 10.2708C8.45833 12.6005 10.2938 14.5 12.6875 14.5C15.0812 14.5 16.9167 12.6005 16.9167 10.2708C16.9167 7.94117 15.0812 6.04167 12.6875 6.04167Z" fill="#33A3D2"/>
</svg>
